:SAMPLES-PER-SECOND 30
:FULLY-SPECIFIED
:DEGREES
233
root  -2.9694 41.0088 0.309926 177.074 -75.9188 -175.331
RightUpLeg  -0.913883 0.64486 -0.109575
RightLeg  -4.20984 -7.70342 0.895819
RightFoot  4.53099 -0.349145 2.726
RightToes  -3.1126e-008 1.75238e-005 3.56266e-009
Spine  9.37993 -2.64845 -7.51334
Spine1  -15.3069 -3.33173 9.56104
HEad  -1.1386 -15.6678 -1.08002
LeftShoulder1  0.475571 1.33667 -15.0801
LeftArm  -31.7421 -40.622 -47.8936
LeftForeArm  53.4359 -75.0283 -38.2769
LeftHand  -0.549077 -4.20491 6.91383
RightShoulder  0.839823 -0.100078 18.2412
RightArm  -9.7238 -21.6925 42.5876
RightForeArm  103.802 78.8922 110.66
RightHand  -0.129373 8.05505 -1.47611
LeftUpLeg  3.40117 1.90613 3.25951
LeftLeg  -4.82613 30.8431 -2.32588
LeftFoot  0.854137 0.481823 -4.55837
LeftToes  4.78049e-008 1.46235e-008 1.34219e-009
234
root  -3.02747 41.0041 0.358091 177.151 -74.7195 -175.477
RightUpLeg  -1.01137 0.662573 -0.10716
RightLeg  -3.96036 -6.55367 0.795683
RightFoot  4.50063 -0.359803 2.80615
RightToes  -3.1126e-008 1.75238e-005 3.56266e-009
Spine  9.429 -3.24545 -8.24954
Spine1  -15.4149 -3.9768 10.3932
HEad  -0.747945 -15.9126 -1.25612
LeftShoulder1  0.578796 0.863281 -15.0532
LeftArm  -31.1584 -41.2776 -47.7908
LeftForeArm  52.1179 -74.7238 -37.4498
LeftHand  -0.503539 -3.91582 6.54246
RightShoulder  0.784032 -0.287208 17.928
RightArm  -10.6487 -22.2341 42.3591
RightForeArm  104.671 78.8763 111.14
RightHand  0.0721263 8.14243 0.247895
LeftUpLeg  3.77697 1.96638 3.18624
LeftLeg  -4.9953 31.9647 -2.50119
LeftFoot  0.723038 0.472798 -4.51529
LeftToes  4.78049e-008 1.46235e-008 1.34219e-009
235
root  -3.08869 40.9943 0.421642 176.796 -73.4171 -175.237
RightUpLeg  -0.953482 0.848221 0.0307529
RightLeg  -3.92477 -5.49109 0.645207
RightFoot  4.54646 -0.384145 2.97484
RightToes  -3.1126e-008 1.75238e-005 3.56266e-009
Spine  9.23358 -4.22342 -9.1378
Spine1  -14.8818 -5.06786 11.5476
HEad  -0.508679 -14.8924 -1.5306
LeftShoulder1  0.532823 1.06617 -14.9891
LeftArm  -30.272 -42.0184 -48.0537
LeftForeArm  51.6848 -74.3612 -36.2188
LeftHand  -0.59735 -4.60525 7.22909
RightShoulder  0.853727 -0.023533 18.0871
RightArm  -10.9182 -21.9625 41.5461
RightForeArm  102.946 78.9445 109.866
RightHand  -0.0627245 8.24518 -0.883925
LeftUpLeg  4.09851 2.14277 3.22146
LeftLeg  -4.85191 33.0335 -2.54673
LeftFoot  0.456219 0.451291 -4.39428
LeftToes  4.78049e-008 1.46235e-008 1.34219e-009
236
root  -3.14655 40.9843 0.490974 176.927 -71.9045 -175.437
RightUpLeg  -1.12696 1.00383 0.0790428
RightLeg  -3.62057 -4.18265 0.415427
RightFoot  4.49447 -0.400897 3.10223
RightToes  -3.1126e-008 1.75238e-005 3.56266e-009
Spine  9.51692 -5.07356 -9.59903
Spine1  -15.0918 -5.94067 12.029
HEad  -0.45115 -14.3097 -1.49428
LeftShoulder1  0.580168 0.83125 -14.8201
LeftArm  -29.1849 -42.4264 -48.5103
LeftForeArm  51.6977 -74.1499 -35.4743
LeftHand  -0.597648 -4.72458 7.14967
RightShoulder  0.789142 -0.274743 17.9985
RightArm  -11.4395 -22.1012 40.9102
RightForeArm  102.158 78.876 110.123
RightHand  0.125372 7.60144 0.750074
LeftUpLeg  4.48997 2.28395 3.14765
LeftLeg  -4.9986 34.3424 -2.82216
LeftFoot  0.237865 0.433447 -4.28994
LeftToes  4.78049e-008 1.46235e-008 1.34219e-009
237
root  -3.22384 40.9786 0.569532 176.961 -70.3731 -175.518
RightUpLeg  -1.13593 1.21506 0.156027
RightLeg  -3.65058 -2.96795 0.184775
RightFoot  4.56853 -0.438194 3.35818
RightToes  -3.1126e-008 1.75238e-005 3.56266e-009
Spine  9.68306 -6.024 -10.2773
Spine1  -15.1127 -6.95631 12.9537
HEad  -0.903943 -14.238 -2.28528
LeftShoulder1  0.631941 0.6178 -15.032
LeftArm  -28.2014 -42.6372 -49.0304
LeftForeArm  51.587 -74.1261 -35.4247
LeftHand  -0.579766 -4.57034 7.04489
RightShoulder  0.717953 -0.526054 17.6447
RightArm  -11.909 -22.2965 40.4576
RightForeArm  101.647 78.8924 109.772
RightHand  -0.12099 7.95771 -1.42563
LeftUpLeg  4.84442 2.36241 3.03672
LeftLeg  -5.04327 35.745 -2.96347
LeftFoot  0.0344706 0.443421 -4.45387
LeftToes  4.78049e-008 1.46235e-008 1.34219e-009
238
root  -3.31311 40.9703 0.644594 177.173 -68.721 -175.632
RightUpLeg  -1.31212 1.39614 0.20576
RightLeg  -3.67725 -1.62216 -0.00977846
RightFoot  4.64889 -0.468495 3.56034
RightToes  -3.1126e-008 1.75238e-005 3.56266e-009
Spine  9.91574 -6.85176 -10.7829
Spine1  -15.3854 -7.80285 13.7166
HEad  -0.872133 -13.8285 -1.8486
LeftShoulder1  0.673544 0.435139 -15.0928
LeftArm  -26.985 -43.1525 -50.0088
LeftForeArm  51.1915 -73.9665 -34.989
LeftHand  -0.582954 -4.79573 6.93548
RightShoulder  0.601862 -0.94544 17.0458
RightArm  -12.3935 -22.7367 40.2398
RightForeArm  101.879 78.8704 110.056
RightHand  -0.261527 8.07081 -2.63106
LeftUpLeg  5.20065 2.35544 2.85153
LeftLeg  -5.48305 37.3633 -3.30859
LeftFoot  -0.0686668 0.437583 -4.42942
LeftToes  4.78049e-008 1.46235e-008 1.34219e-009
